<svg width="462" height="255" viewBox="0 0 462 255" fill="none" xmlns="http://www.w3.org/2000/svg">
<path d="M52.1157 143.473C46.4494 143.465 41.2563 145.789 37.5548 149.502C33.8419 153.208 31.5175 158.401 31.5215 164.067C31.5175 169.725 33.8414 174.922 37.5548 178.624C41.2563 182.341 46.4494 184.661 52.1157 184.657C57.778 184.661 62.9746 182.34 66.6766 178.624C70.3896 174.922 72.71 169.725 72.71 164.067C72.71 158.4 70.3901 153.208 66.6766 149.502C62.9751 145.789 57.778 143.465 52.1157 143.473ZM57.6874 169.642C56.2301 171.085 54.3226 171.944 52.1157 171.951C49.9014 171.944 48.0009 171.085 46.5441 169.642C45.0943 168.182 44.2311 166.274 44.2311 164.067C44.2351 161.856 45.0938 159.949 46.5441 158.492C48.0009 157.042 49.9014 156.183 52.1157 156.179C54.3221 156.183 56.2301 157.042 57.6874 158.492C59.1367 159.949 59.9963 161.856 59.9998 164.067C59.9963 166.273 59.1372 168.178 57.6874 169.642Z" fill="black"/>
<path d="M189.966 143.473C184.3 143.465 179.107 145.789 175.405 149.502C171.692 153.208 169.368 158.401 169.372 164.067C169.368 169.725 171.692 174.922 175.405 178.624C179.107 182.341 184.3 184.661 189.966 184.657C195.628 184.661 200.825 182.34 204.527 178.624C208.24 174.922 210.56 169.725 210.56 164.067C210.56 158.4 208.24 153.208 204.527 149.502C200.825 145.789 195.628 143.465 189.966 143.473ZM195.537 169.642C194.08 171.085 192.172 171.944 189.966 171.951C187.751 171.944 185.851 171.085 184.394 169.642C182.944 168.182 182.081 166.274 182.081 164.067C182.085 161.856 182.944 159.949 184.394 158.492C185.851 157.042 187.752 156.183 189.966 156.179C192.172 156.183 194.08 157.042 195.537 158.492C196.987 159.949 197.846 161.856 197.85 164.067C197.846 166.273 196.987 168.178 195.537 169.642Z" fill="black"/>
<path d="M249.958 156.243H215.178V171.376H249.958C252.74 171.376 255 169.116 255 166.33V161.289C255 158.503 252.74 156.243 249.958 156.243Z" fill="black"/>
<path d="M0 161.289V166.33C0 169.116 2.25964 171.376 5.04123 171.376H27.7402V156.243H5.04123C2.25964 156.243 0 158.503 0 161.289Z" fill="black"/>
<path d="M250.064 151.894C250.064 148.564 249.288 145.282 247.801 142.303L241.359 129.423C238.368 123.442 232.759 119.203 226.192 117.95L189.319 110.929C185.666 110.229 182.373 108.261 180.034 105.365L162.445 83.6092C155.658 75.2177 145.443 70.3428 134.652 70.3428H50.5299C37.7326 70.3428 25.9085 77.1899 19.5345 88.2874L13.2705 99.2031C7.05191 110.032 3.78174 122.3 3.78174 134.79V152.716H29.1677C30.4013 150.222 32.01 147.913 33.9933 145.933C38.7471 141.168 45.3482 138.427 52.0973 138.427C58.8871 138.427 65.4887 141.168 70.2501 145.941C75.0189 150.695 77.7556 157.311 77.7517 164.071C77.7517 164.488 77.7103 164.903 77.6914 165.324H164.394C164.371 164.903 164.33 164.484 164.33 164.063C164.326 157.311 167.063 150.698 171.844 145.933C176.597 141.168 183.199 138.427 189.947 138.427C196.738 138.427 203.339 141.168 208.1 145.941C210.079 147.917 211.684 150.222 212.915 152.716H250.064V151.894ZM60.9386 117.409H28.9969C23.3266 117.409 22.6946 114.472 24.375 109.741L30.4691 94.5663C34.5829 87.4014 42.2708 82.9503 50.5294 82.9503H60.9381V117.409H60.9386ZM104.841 131.702H92.2667C90.7487 131.702 89.519 130.384 89.519 128.765C89.519 127.137 90.7492 125.82 92.2667 125.82H104.841C106.358 125.82 107.589 127.137 107.589 128.765C107.589 130.384 106.359 131.702 104.841 131.702ZM114.731 117.409H68.5049V82.9503H114.731V117.409ZM167.385 117.409H122.297V82.9503H134.652C141.673 82.9503 148.229 86.0806 152.642 91.5347L170.227 113.291C171.465 114.82 171.465 117.409 167.385 117.409ZM232.385 134.643H215.818C214.031 134.643 212.521 133.321 212.283 131.558L211.476 125.596C211.355 124.676 211.665 123.749 212.324 123.094C212.982 122.439 213.91 122.129 214.83 122.258L223.527 123.465C223.527 123.465 229.489 124.722 233.312 130.452C236.105 134.643 232.385 134.643 232.385 134.643Z" fill="black"/>
<g filter="url(#filter0_f_292_2)">
<path d="M250.196 135.473L250.893 127.002L453.578 111L453.578 177.993L250.196 135.473Z" fill="#F4E98D"/>
</g>
<defs>
<filter id="filter0_f_292_2" x="242.196" y="103" width="219.383" height="82.9927" filterUnits="userSpaceOnUse" color-interpolation-filters="sRGB">
<feFlood flood-opacity="0" result="BackgroundImageFix"/>
<feBlend mode="normal" in="SourceGraphic" in2="BackgroundImageFix" result="shape"/>
<feGaussianBlur stdDeviation="4" result="effect1_foregroundBlur_292_2"/>
</filter>
</defs>
</svg>
