<?xml version="1.0" standalone="no"?>
<!DOCTYPE svg PUBLIC "-//W3C//DTD SVG 20010904//EN"
 "http://www.w3.org/TR/2001/REC-SVG-20010904/DTD/svg10.dtd">
<svg version="1.0" xmlns="http://www.w3.org/2000/svg"
 width="123.000000pt" height="123.000000pt" viewBox="0 0 123.000000 123.000000"
 preserveAspectRatio="xMidYMid meet">

<g transform="translate(0.000000,123.000000) scale(0.100000,-0.100000)"
fill="#000000" stroke="none">
<path d="M942 1048 c-119 -15 -144 -26 -169 -78 -13 -25 -37 -83 -55 -130 -38
-103 -52 -122 -85 -114 -14 4 -46 -3 -78 -16 -31 -13 -57 -21 -59 -19 -1 2
-19 36 -40 74 -42 79 -79 115 -117 115 -74 0 -219 -171 -219 -258 0 -37 7 -49
69 -118 l70 -78 -27 -45 c-14 -25 -41 -71 -59 -101 -38 -64 -39 -71 -15 -93
26 -24 92 -23 92 1 0 10 -4 22 -9 27 -6 6 15 47 55 105 39 59 64 105 64 122 0
15 -16 56 -35 91 -19 35 -35 71 -35 80 0 17 61 87 77 87 5 0 26 -22 47 -50 37
-49 68 -63 92 -41 9 9 100 61 106 61 2 0 3 -105 3 -233 0 -271 -1 -267 81
-267 61 0 77 15 89 86 l6 40 149 -4 c163 -5 170 -3 156 53 -6 23 -11 25 -66
25 -32 0 -61 3 -64 8 -2 4 -7 24 -11 44 l-7 37 73 3 74 3 3 104 c1 57 -1 108
-5 112 -4 4 -78 13 -163 19 -85 6 -159 15 -164 20 -7 7 31 123 70 207 13 30
18 32 82 38 37 3 92 9 122 13 55 7 55 7 55 42 0 34 -1 35 -40 36 -22 1 -73 -2
-113 -8z m-50 -455 c4 -2 0 -19 -9 -38 -16 -33 -19 -35 -69 -35 -67 0 -81 6
-99 41 -26 49 -23 51 78 43 50 -3 95 -8 99 -11z"/>
<path d="M464 1010 c-11 -4 -27 -22 -34 -39 -10 -26 -10 -38 2 -69 24 -63 97
-71 131 -13 24 42 21 68 -12 102 -30 30 -50 34 -87 19z"/>
<path d="M348 329 c-21 -24 -28 -44 -28 -73 0 -76 7 -86 56 -86 38 0 44 3 44
21 0 12 -7 27 -15 33 -10 7 -18 36 -23 75 l-7 64 -27 -34z"/>
</g>
</svg>
